<?xml version="1.0" encoding="UTF-8" standalone="no"?>
<!DOCTYPE svg PUBLIC "-//W3C//DTD SVG 1.1//EN" "http://www.w3.org/Graphics/SVG/1.1/DTD/svg11.dtd">
<svg width="100%" height="100%" viewBox="0 0 1080 140" version="1.1" xmlns="http://www.w3.org/2000/svg" xmlns:xlink="http://www.w3.org/1999/xlink" xml:space="preserve" xmlns:serif="http://www.serif.com/" style="fill-rule:evenodd;clip-rule:evenodd;stroke-linejoin:round;stroke-miterlimit:1.41421;">
    <g transform="matrix(1,0,0,1,0,-8.05396)">
        <g id="muffin-svgrepo-com" transform="matrix(0.212042,0,0,0.216144,82.4104,46.1267)">
            <path d="M148.5,212.002C143.042,212.002 138.616,216.427 138.616,221.885L138.616,254.501C138.616,259.959 143.042,264.385 148.5,264.385C153.958,264.385 158.384,259.959 158.384,254.501L158.384,221.885C158.384,216.427 153.958,212.002 148.5,212.002Z" style="fill:rgb(120,165,207);fill-rule:nonzero;"/>
            <path d="M104.922,220.55C104.185,215.142 99.212,211.356 93.793,212.093C88.385,212.83 84.599,217.813 85.336,223.221L89.784,255.837C90.459,260.792 94.698,264.386 99.564,264.386C100.008,264.386 100.459,264.356 100.912,264.294C106.32,263.557 110.106,258.574 109.369,253.165L104.922,220.55Z" style="fill:rgb(120,165,207);fill-rule:nonzero;"/>
            <path d="M203.207,212.093C197.793,211.354 192.815,215.143 192.078,220.55L187.631,253.165C186.894,258.574 190.68,263.557 196.088,264.294C196.541,264.356 196.991,264.386 197.436,264.386C202.302,264.386 206.541,260.791 207.216,255.837L211.664,223.221C212.401,217.813 208.615,212.83 203.207,212.093Z" style="fill:rgb(120,165,207);fill-rule:nonzero;"/>
            <path d="M289.359,156.654C289.359,126.292 274.252,94.567 247.911,69.614C231.091,53.678 211.432,42.121 190.411,35.496C187.061,15.383 169.548,0 148.5,0C127.452,0 109.938,15.383 106.589,35.496C85.568,42.121 65.909,53.679 49.089,69.614C22.747,94.567 7.641,126.292 7.641,156.654C7.641,175.586 20.238,191.661 37.583,197.14L45.391,260.85C47.835,280.784 66.161,297 86.241,297L210.759,297C230.839,297 249.165,280.784 251.61,260.851L259.403,197.263C276.733,191.898 289.359,175.725 289.359,156.654ZM148.5,19.767C161.035,19.767 171.232,29.964 171.232,42.499C171.232,55.034 161.035,65.231 148.5,65.231C135.965,65.231 125.768,55.034 125.768,42.499C125.768,29.964 135.965,19.767 148.5,19.767ZM231.989,258.445C230.74,268.629 221.017,277.233 210.759,277.233L86.241,277.233C75.982,277.233 66.26,268.629 65.011,258.445L57.673,198.568C67.925,196.857 76.947,191.466 83.327,183.8C91.224,193.175 103.118,199.153 116.397,199.153C129.407,199.153 141.061,193.207 148.816,183.872C156.665,193.207 168.46,199.153 181.629,199.153C194.639,199.153 206.293,193.207 214.048,183.872C220.367,191.387 229.246,196.698 239.337,198.487L231.989,258.445ZM246.86,179.386C234.184,179.386 223.871,169.189 223.871,156.655C223.871,151.196 219.446,146.771 213.988,146.771C208.53,146.771 204.104,151.196 204.104,156.655C204.104,169.189 194.022,179.386 181.628,179.386C168.952,179.386 158.64,169.189 158.64,156.655C158.64,151.196 154.214,146.771 148.756,146.771C143.298,146.771 138.872,151.196 138.872,156.655C138.872,169.189 128.79,179.386 116.396,179.386C103.795,179.386 93.151,168.977 93.151,156.655C93.151,151.196 88.725,146.771 83.267,146.771C77.809,146.771 73.383,151.196 73.383,156.655C73.383,169.189 63.186,179.386 50.652,179.386C38.051,179.386 27.406,168.977 27.406,156.655C27.406,132.063 40.594,104.889 62.682,83.966C76.118,71.236 91.61,61.733 108.151,55.824C113.755,72.749 129.718,84.999 148.499,84.999C167.28,84.999 183.243,72.749 188.847,55.824C205.389,61.732 220.879,71.235 234.316,83.966C256.405,104.89 269.592,132.064 269.592,156.655C269.593,169.189 259.396,179.386 246.86,179.386Z" style="fill:rgb(120,165,207);fill-rule:nonzero;"/>
            <g transform="matrix(1.20588,0,0,1.24725,-33.9694,-12.5362)">
                <ellipse cx="151.316" cy="44.118" rx="19.149" ry="18.21" style="fill:rgb(120,165,207);"/>
            </g>
        </g>
        <g id="muffin-svgrepo-com1" serif:id="muffin-svgrepo-com" transform="matrix(0.212042,0,0,0.216144,555.856,46.4672)">
            <path d="M148.5,212.002C143.042,212.002 138.616,216.427 138.616,221.885L138.616,254.501C138.616,259.959 143.042,264.385 148.5,264.385C153.958,264.385 158.384,259.959 158.384,254.501L158.384,221.885C158.384,216.427 153.958,212.002 148.5,212.002Z" style="fill:rgb(120,165,207);fill-rule:nonzero;"/>
            <path d="M104.922,220.55C104.185,215.142 99.212,211.356 93.793,212.093C88.385,212.83 84.599,217.813 85.336,223.221L89.784,255.837C90.459,260.792 94.698,264.386 99.564,264.386C100.008,264.386 100.459,264.356 100.912,264.294C106.32,263.557 110.106,258.574 109.369,253.165L104.922,220.55Z" style="fill:rgb(120,165,207);fill-rule:nonzero;"/>
            <path d="M203.207,212.093C197.793,211.354 192.815,215.143 192.078,220.55L187.631,253.165C186.894,258.574 190.68,263.557 196.088,264.294C196.541,264.356 196.991,264.386 197.436,264.386C202.302,264.386 206.541,260.791 207.216,255.837L211.664,223.221C212.401,217.813 208.615,212.83 203.207,212.093Z" style="fill:rgb(120,165,207);fill-rule:nonzero;"/>
            <path d="M289.359,156.654C289.359,126.292 274.252,94.567 247.911,69.614C231.091,53.678 211.432,42.121 190.411,35.496C187.061,15.383 169.548,0 148.5,0C127.452,0 109.938,15.383 106.589,35.496C85.568,42.121 65.909,53.679 49.089,69.614C22.747,94.567 7.641,126.292 7.641,156.654C7.641,175.586 20.238,191.661 37.583,197.14L45.391,260.85C47.835,280.784 66.161,297 86.241,297L210.759,297C230.839,297 249.165,280.784 251.61,260.851L259.403,197.263C276.733,191.898 289.359,175.725 289.359,156.654ZM148.5,19.767C161.035,19.767 171.232,29.964 171.232,42.499C171.232,55.034 161.035,65.231 148.5,65.231C135.965,65.231 125.768,55.034 125.768,42.499C125.768,29.964 135.965,19.767 148.5,19.767ZM231.989,258.445C230.74,268.629 221.017,277.233 210.759,277.233L86.241,277.233C75.982,277.233 66.26,268.629 65.011,258.445L57.673,198.568C67.925,196.857 76.947,191.466 83.327,183.8C91.224,193.175 103.118,199.153 116.397,199.153C129.407,199.153 141.061,193.207 148.816,183.872C156.665,193.207 168.46,199.153 181.629,199.153C194.639,199.153 206.293,193.207 214.048,183.872C220.367,191.387 229.246,196.698 239.337,198.487L231.989,258.445ZM246.86,179.386C234.184,179.386 223.871,169.189 223.871,156.655C223.871,151.196 219.446,146.771 213.988,146.771C208.53,146.771 204.104,151.196 204.104,156.655C204.104,169.189 194.022,179.386 181.628,179.386C168.952,179.386 158.64,169.189 158.64,156.655C158.64,151.196 154.214,146.771 148.756,146.771C143.298,146.771 138.872,151.196 138.872,156.655C138.872,169.189 128.79,179.386 116.396,179.386C103.795,179.386 93.151,168.977 93.151,156.655C93.151,151.196 88.725,146.771 83.267,146.771C77.809,146.771 73.383,151.196 73.383,156.655C73.383,169.189 63.186,179.386 50.652,179.386C38.051,179.386 27.406,168.977 27.406,156.655C27.406,132.063 40.594,104.889 62.682,83.966C76.118,71.236 91.61,61.733 108.151,55.824C113.755,72.749 129.718,84.999 148.499,84.999C167.28,84.999 183.243,72.749 188.847,55.824C205.389,61.732 220.879,71.235 234.316,83.966C256.405,104.89 269.592,132.064 269.592,156.655C269.593,169.189 259.396,179.386 246.86,179.386Z" style="fill:rgb(120,165,207);fill-rule:nonzero;"/>
            <g transform="matrix(1.20588,0,0,1.24725,-33.9694,-12.5362)">
                <ellipse cx="151.316" cy="44.118" rx="19.149" ry="18.21" style="fill:rgb(120,165,207);"/>
            </g>
        </g>
        <g id="muffin-svgrepo-com2" serif:id="muffin-svgrepo-com" transform="matrix(0.212042,0,0,0.216144,177.1,45.7863)">
            <path d="M148.5,212.002C143.042,212.002 138.616,216.427 138.616,221.885L138.616,254.501C138.616,259.959 143.042,264.385 148.5,264.385C153.958,264.385 158.384,259.959 158.384,254.501L158.384,221.885C158.384,216.427 153.958,212.002 148.5,212.002Z" style="fill:rgb(130,98,178);fill-rule:nonzero;"/>
            <path d="M104.922,220.55C104.185,215.142 99.212,211.356 93.793,212.093C88.385,212.83 84.599,217.813 85.336,223.221L89.784,255.837C90.459,260.792 94.698,264.386 99.564,264.386C100.008,264.386 100.459,264.356 100.912,264.294C106.32,263.557 110.106,258.574 109.369,253.165L104.922,220.55Z" style="fill:rgb(130,98,178);fill-rule:nonzero;"/>
            <path d="M203.207,212.093C197.793,211.354 192.815,215.143 192.078,220.55L187.631,253.165C186.894,258.574 190.68,263.557 196.088,264.294C196.541,264.356 196.991,264.386 197.436,264.386C202.302,264.386 206.541,260.791 207.216,255.837L211.664,223.221C212.401,217.813 208.615,212.83 203.207,212.093Z" style="fill:rgb(130,98,178);fill-rule:nonzero;"/>
            <path d="M289.359,156.654C289.359,126.292 274.252,94.567 247.911,69.614C231.091,53.678 211.432,42.121 190.411,35.496C187.061,15.383 169.548,0 148.5,0C127.452,0 109.938,15.383 106.589,35.496C85.568,42.121 65.909,53.679 49.089,69.614C22.747,94.567 7.641,126.292 7.641,156.654C7.641,175.586 20.238,191.661 37.583,197.14L45.391,260.85C47.835,280.784 66.161,297 86.241,297L210.759,297C230.839,297 249.165,280.784 251.61,260.851L259.403,197.263C276.733,191.898 289.359,175.725 289.359,156.654ZM148.5,19.767C161.035,19.767 171.232,29.964 171.232,42.499C171.232,55.034 161.035,65.231 148.5,65.231C135.965,65.231 125.768,55.034 125.768,42.499C125.768,29.964 135.965,19.767 148.5,19.767ZM231.989,258.445C230.74,268.629 221.017,277.233 210.759,277.233L86.241,277.233C75.982,277.233 66.26,268.629 65.011,258.445L57.673,198.568C67.925,196.857 76.947,191.466 83.327,183.8C91.224,193.175 103.118,199.153 116.397,199.153C129.407,199.153 141.061,193.207 148.816,183.872C156.665,193.207 168.46,199.153 181.629,199.153C194.639,199.153 206.293,193.207 214.048,183.872C220.367,191.387 229.246,196.698 239.337,198.487L231.989,258.445ZM246.86,179.386C234.184,179.386 223.871,169.189 223.871,156.655C223.871,151.196 219.446,146.771 213.988,146.771C208.53,146.771 204.104,151.196 204.104,156.655C204.104,169.189 194.022,179.386 181.628,179.386C168.952,179.386 158.64,169.189 158.64,156.655C158.64,151.196 154.214,146.771 148.756,146.771C143.298,146.771 138.872,151.196 138.872,156.655C138.872,169.189 128.79,179.386 116.396,179.386C103.795,179.386 93.151,168.977 93.151,156.655C93.151,151.196 88.725,146.771 83.267,146.771C77.809,146.771 73.383,151.196 73.383,156.655C73.383,169.189 63.186,179.386 50.652,179.386C38.051,179.386 27.406,168.977 27.406,156.655C27.406,132.063 40.594,104.889 62.682,83.966C76.118,71.236 91.61,61.733 108.151,55.824C113.755,72.749 129.718,84.999 148.499,84.999C167.28,84.999 183.243,72.749 188.847,55.824C205.389,61.732 220.879,71.235 234.316,83.966C256.405,104.89 269.592,132.064 269.592,156.655C269.593,169.189 259.396,179.386 246.86,179.386Z" style="fill:rgb(130,98,178);fill-rule:nonzero;"/>
            <g transform="matrix(1.20588,0,0,1.24725,-33.9694,-12.5362)">
                <ellipse cx="151.316" cy="44.118" rx="19.149" ry="18.21" style="fill:rgb(130,98,178);"/>
            </g>
        </g>
        <g id="muffin-svgrepo-com3" serif:id="muffin-svgrepo-com" transform="matrix(0.212042,0,0,0.216144,650.545,46.1267)">
            <path d="M148.5,212.002C143.042,212.002 138.616,216.427 138.616,221.885L138.616,254.501C138.616,259.959 143.042,264.385 148.5,264.385C153.958,264.385 158.384,259.959 158.384,254.501L158.384,221.885C158.384,216.427 153.958,212.002 148.5,212.002Z" style="fill:rgb(130,98,178);fill-rule:nonzero;"/>
            <path d="M104.922,220.55C104.185,215.142 99.212,211.356 93.793,212.093C88.385,212.83 84.599,217.813 85.336,223.221L89.784,255.837C90.459,260.792 94.698,264.386 99.564,264.386C100.008,264.386 100.459,264.356 100.912,264.294C106.32,263.557 110.106,258.574 109.369,253.165L104.922,220.55Z" style="fill:rgb(130,98,178);fill-rule:nonzero;"/>
            <path d="M203.207,212.093C197.793,211.354 192.815,215.143 192.078,220.55L187.631,253.165C186.894,258.574 190.68,263.557 196.088,264.294C196.541,264.356 196.991,264.386 197.436,264.386C202.302,264.386 206.541,260.791 207.216,255.837L211.664,223.221C212.401,217.813 208.615,212.83 203.207,212.093Z" style="fill:rgb(130,98,178);fill-rule:nonzero;"/>
            <path d="M289.359,156.654C289.359,126.292 274.252,94.567 247.911,69.614C231.091,53.678 211.432,42.121 190.411,35.496C187.061,15.383 169.548,0 148.5,0C127.452,0 109.938,15.383 106.589,35.496C85.568,42.121 65.909,53.679 49.089,69.614C22.747,94.567 7.641,126.292 7.641,156.654C7.641,175.586 20.238,191.661 37.583,197.14L45.391,260.85C47.835,280.784 66.161,297 86.241,297L210.759,297C230.839,297 249.165,280.784 251.61,260.851L259.403,197.263C276.733,191.898 289.359,175.725 289.359,156.654ZM148.5,19.767C161.035,19.767 171.232,29.964 171.232,42.499C171.232,55.034 161.035,65.231 148.5,65.231C135.965,65.231 125.768,55.034 125.768,42.499C125.768,29.964 135.965,19.767 148.5,19.767ZM231.989,258.445C230.74,268.629 221.017,277.233 210.759,277.233L86.241,277.233C75.982,277.233 66.26,268.629 65.011,258.445L57.673,198.568C67.925,196.857 76.947,191.466 83.327,183.8C91.224,193.175 103.118,199.153 116.397,199.153C129.407,199.153 141.061,193.207 148.816,183.872C156.665,193.207 168.46,199.153 181.629,199.153C194.639,199.153 206.293,193.207 214.048,183.872C220.367,191.387 229.246,196.698 239.337,198.487L231.989,258.445ZM246.86,179.386C234.184,179.386 223.871,169.189 223.871,156.655C223.871,151.196 219.446,146.771 213.988,146.771C208.53,146.771 204.104,151.196 204.104,156.655C204.104,169.189 194.022,179.386 181.628,179.386C168.952,179.386 158.64,169.189 158.64,156.655C158.64,151.196 154.214,146.771 148.756,146.771C143.298,146.771 138.872,151.196 138.872,156.655C138.872,169.189 128.79,179.386 116.396,179.386C103.795,179.386 93.151,168.977 93.151,156.655C93.151,151.196 88.725,146.771 83.267,146.771C77.809,146.771 73.383,151.196 73.383,156.655C73.383,169.189 63.186,179.386 50.652,179.386C38.051,179.386 27.406,168.977 27.406,156.655C27.406,132.063 40.594,104.889 62.682,83.966C76.118,71.236 91.61,61.733 108.151,55.824C113.755,72.749 129.718,84.999 148.499,84.999C167.28,84.999 183.243,72.749 188.847,55.824C205.389,61.732 220.879,71.235 234.316,83.966C256.405,104.89 269.592,132.064 269.592,156.655C269.593,169.189 259.396,179.386 246.86,179.386Z" style="fill:rgb(130,98,178);fill-rule:nonzero;"/>
            <g transform="matrix(1.20588,0,0,1.24725,-33.9694,-12.5362)">
                <ellipse cx="151.316" cy="44.118" rx="19.149" ry="18.21" style="fill:rgb(130,98,178);"/>
            </g>
        </g>
        <g id="muffin-svgrepo-com4" serif:id="muffin-svgrepo-com" transform="matrix(0.212042,0,0,0.216144,271.789,45.7863)">
            <path d="M148.5,212.002C143.042,212.002 138.616,216.427 138.616,221.885L138.616,254.501C138.616,259.959 143.042,264.385 148.5,264.385C153.958,264.385 158.384,259.959 158.384,254.501L158.384,221.885C158.384,216.427 153.958,212.002 148.5,212.002Z" style="fill:rgb(207,120,186);fill-rule:nonzero;"/>
            <path d="M104.922,220.55C104.185,215.142 99.212,211.356 93.793,212.093C88.385,212.83 84.599,217.813 85.336,223.221L89.784,255.837C90.459,260.792 94.698,264.386 99.564,264.386C100.008,264.386 100.459,264.356 100.912,264.294C106.32,263.557 110.106,258.574 109.369,253.165L104.922,220.55Z" style="fill:rgb(207,120,186);fill-rule:nonzero;"/>
            <path d="M203.207,212.093C197.793,211.354 192.815,215.143 192.078,220.55L187.631,253.165C186.894,258.574 190.68,263.557 196.088,264.294C196.541,264.356 196.991,264.386 197.436,264.386C202.302,264.386 206.541,260.791 207.216,255.837L211.664,223.221C212.401,217.813 208.615,212.83 203.207,212.093Z" style="fill:rgb(207,120,186);fill-rule:nonzero;"/>
            <path d="M289.359,156.654C289.359,126.292 274.252,94.567 247.911,69.614C231.091,53.678 211.432,42.121 190.411,35.496C187.061,15.383 169.548,0 148.5,0C127.452,0 109.938,15.383 106.589,35.496C85.568,42.121 65.909,53.679 49.089,69.614C22.747,94.567 7.641,126.292 7.641,156.654C7.641,175.586 20.238,191.661 37.583,197.14L45.391,260.85C47.835,280.784 66.161,297 86.241,297L210.759,297C230.839,297 249.165,280.784 251.61,260.851L259.403,197.263C276.733,191.898 289.359,175.725 289.359,156.654ZM148.5,19.767C161.035,19.767 171.232,29.964 171.232,42.499C171.232,55.034 161.035,65.231 148.5,65.231C135.965,65.231 125.768,55.034 125.768,42.499C125.768,29.964 135.965,19.767 148.5,19.767ZM231.989,258.445C230.74,268.629 221.017,277.233 210.759,277.233L86.241,277.233C75.982,277.233 66.26,268.629 65.011,258.445L57.673,198.568C67.925,196.857 76.947,191.466 83.327,183.8C91.224,193.175 103.118,199.153 116.397,199.153C129.407,199.153 141.061,193.207 148.816,183.872C156.665,193.207 168.46,199.153 181.629,199.153C194.639,199.153 206.293,193.207 214.048,183.872C220.367,191.387 229.246,196.698 239.337,198.487L231.989,258.445ZM246.86,179.386C234.184,179.386 223.871,169.189 223.871,156.655C223.871,151.196 219.446,146.771 213.988,146.771C208.53,146.771 204.104,151.196 204.104,156.655C204.104,169.189 194.022,179.386 181.628,179.386C168.952,179.386 158.64,169.189 158.64,156.655C158.64,151.196 154.214,146.771 148.756,146.771C143.298,146.771 138.872,151.196 138.872,156.655C138.872,169.189 128.79,179.386 116.396,179.386C103.795,179.386 93.151,168.977 93.151,156.655C93.151,151.196 88.725,146.771 83.267,146.771C77.809,146.771 73.383,151.196 73.383,156.655C73.383,169.189 63.186,179.386 50.652,179.386C38.051,179.386 27.406,168.977 27.406,156.655C27.406,132.063 40.594,104.889 62.682,83.966C76.118,71.236 91.61,61.733 108.151,55.824C113.755,72.749 129.718,84.999 148.499,84.999C167.28,84.999 183.243,72.749 188.847,55.824C205.389,61.732 220.879,71.235 234.316,83.966C256.405,104.89 269.592,132.064 269.592,156.655C269.593,169.189 259.396,179.386 246.86,179.386Z" style="fill:rgb(207,120,186);fill-rule:nonzero;"/>
            <g transform="matrix(1.20588,0,0,1.24725,-33.9694,-12.5362)">
                <ellipse cx="151.316" cy="44.118" rx="19.149" ry="18.21" style="fill:rgb(207,120,186);"/>
            </g>
        </g>
        <g id="muffin-svgrepo-com5" serif:id="muffin-svgrepo-com" transform="matrix(0.212042,0,0,0.216144,745.235,46.1267)">
            <path d="M148.5,212.002C143.042,212.002 138.616,216.427 138.616,221.885L138.616,254.501C138.616,259.959 143.042,264.385 148.5,264.385C153.958,264.385 158.384,259.959 158.384,254.501L158.384,221.885C158.384,216.427 153.958,212.002 148.5,212.002Z" style="fill:rgb(207,120,186);fill-rule:nonzero;"/>
            <path d="M104.922,220.55C104.185,215.142 99.212,211.356 93.793,212.093C88.385,212.83 84.599,217.813 85.336,223.221L89.784,255.837C90.459,260.792 94.698,264.386 99.564,264.386C100.008,264.386 100.459,264.356 100.912,264.294C106.32,263.557 110.106,258.574 109.369,253.165L104.922,220.55Z" style="fill:rgb(207,120,186);fill-rule:nonzero;"/>
            <path d="M203.207,212.093C197.793,211.354 192.815,215.143 192.078,220.55L187.631,253.165C186.894,258.574 190.68,263.557 196.088,264.294C196.541,264.356 196.991,264.386 197.436,264.386C202.302,264.386 206.541,260.791 207.216,255.837L211.664,223.221C212.401,217.813 208.615,212.83 203.207,212.093Z" style="fill:rgb(207,120,186);fill-rule:nonzero;"/>
            <path d="M289.359,156.654C289.359,126.292 274.252,94.567 247.911,69.614C231.091,53.678 211.432,42.121 190.411,35.496C187.061,15.383 169.548,0 148.5,0C127.452,0 109.938,15.383 106.589,35.496C85.568,42.121 65.909,53.679 49.089,69.614C22.747,94.567 7.641,126.292 7.641,156.654C7.641,175.586 20.238,191.661 37.583,197.14L45.391,260.85C47.835,280.784 66.161,297 86.241,297L210.759,297C230.839,297 249.165,280.784 251.61,260.851L259.403,197.263C276.733,191.898 289.359,175.725 289.359,156.654ZM148.5,19.767C161.035,19.767 171.232,29.964 171.232,42.499C171.232,55.034 161.035,65.231 148.5,65.231C135.965,65.231 125.768,55.034 125.768,42.499C125.768,29.964 135.965,19.767 148.5,19.767ZM231.989,258.445C230.74,268.629 221.017,277.233 210.759,277.233L86.241,277.233C75.982,277.233 66.26,268.629 65.011,258.445L57.673,198.568C67.925,196.857 76.947,191.466 83.327,183.8C91.224,193.175 103.118,199.153 116.397,199.153C129.407,199.153 141.061,193.207 148.816,183.872C156.665,193.207 168.46,199.153 181.629,199.153C194.639,199.153 206.293,193.207 214.048,183.872C220.367,191.387 229.246,196.698 239.337,198.487L231.989,258.445ZM246.86,179.386C234.184,179.386 223.871,169.189 223.871,156.655C223.871,151.196 219.446,146.771 213.988,146.771C208.53,146.771 204.104,151.196 204.104,156.655C204.104,169.189 194.022,179.386 181.628,179.386C168.952,179.386 158.64,169.189 158.64,156.655C158.64,151.196 154.214,146.771 148.756,146.771C143.298,146.771 138.872,151.196 138.872,156.655C138.872,169.189 128.79,179.386 116.396,179.386C103.795,179.386 93.151,168.977 93.151,156.655C93.151,151.196 88.725,146.771 83.267,146.771C77.809,146.771 73.383,151.196 73.383,156.655C73.383,169.189 63.186,179.386 50.652,179.386C38.051,179.386 27.406,168.977 27.406,156.655C27.406,132.063 40.594,104.889 62.682,83.966C76.118,71.236 91.61,61.733 108.151,55.824C113.755,72.749 129.718,84.999 148.499,84.999C167.28,84.999 183.243,72.749 188.847,55.824C205.389,61.732 220.879,71.235 234.316,83.966C256.405,104.89 269.592,132.064 269.592,156.655C269.593,169.189 259.396,179.386 246.86,179.386Z" style="fill:rgb(207,120,186);fill-rule:nonzero;"/>
            <g transform="matrix(1.20588,0,0,1.24725,-33.9694,-12.5362)">
                <ellipse cx="151.316" cy="44.118" rx="19.149" ry="18.21" style="fill:rgb(207,120,186);"/>
            </g>
        </g>
        <g id="muffin-svgrepo-com6" serif:id="muffin-svgrepo-com" transform="matrix(0.212042,0,0,0.216144,366.478,45.7863)">
            <path d="M148.5,212.002C143.042,212.002 138.616,216.427 138.616,221.885L138.616,254.501C138.616,259.959 143.042,264.385 148.5,264.385C153.958,264.385 158.384,259.959 158.384,254.501L158.384,221.885C158.384,216.427 153.958,212.002 148.5,212.002Z" style="fill:rgb(207,129,120);fill-rule:nonzero;"/>
            <path d="M104.922,220.55C104.185,215.142 99.212,211.356 93.793,212.093C88.385,212.83 84.599,217.813 85.336,223.221L89.784,255.837C90.459,260.792 94.698,264.386 99.564,264.386C100.008,264.386 100.459,264.356 100.912,264.294C106.32,263.557 110.106,258.574 109.369,253.165L104.922,220.55Z" style="fill:rgb(207,129,120);fill-rule:nonzero;"/>
            <path d="M203.207,212.093C197.793,211.354 192.815,215.143 192.078,220.55L187.631,253.165C186.894,258.574 190.68,263.557 196.088,264.294C196.541,264.356 196.991,264.386 197.436,264.386C202.302,264.386 206.541,260.791 207.216,255.837L211.664,223.221C212.401,217.813 208.615,212.83 203.207,212.093Z" style="fill:rgb(207,129,120);fill-rule:nonzero;"/>
            <path d="M289.359,156.654C289.359,126.292 274.252,94.567 247.911,69.614C231.091,53.678 211.432,42.121 190.411,35.496C187.061,15.383 169.548,0 148.5,0C127.452,0 109.938,15.383 106.589,35.496C85.568,42.121 65.909,53.679 49.089,69.614C22.747,94.567 7.641,126.292 7.641,156.654C7.641,175.586 20.238,191.661 37.583,197.14L45.391,260.85C47.835,280.784 66.161,297 86.241,297L210.759,297C230.839,297 249.165,280.784 251.61,260.851L259.403,197.263C276.733,191.898 289.359,175.725 289.359,156.654ZM148.5,19.767C161.035,19.767 171.232,29.964 171.232,42.499C171.232,55.034 161.035,65.231 148.5,65.231C135.965,65.231 125.768,55.034 125.768,42.499C125.768,29.964 135.965,19.767 148.5,19.767ZM231.989,258.445C230.74,268.629 221.017,277.233 210.759,277.233L86.241,277.233C75.982,277.233 66.26,268.629 65.011,258.445L57.673,198.568C67.925,196.857 76.947,191.466 83.327,183.8C91.224,193.175 103.118,199.153 116.397,199.153C129.407,199.153 141.061,193.207 148.816,183.872C156.665,193.207 168.46,199.153 181.629,199.153C194.639,199.153 206.293,193.207 214.048,183.872C220.367,191.387 229.246,196.698 239.337,198.487L231.989,258.445ZM246.86,179.386C234.184,179.386 223.871,169.189 223.871,156.655C223.871,151.196 219.446,146.771 213.988,146.771C208.53,146.771 204.104,151.196 204.104,156.655C204.104,169.189 194.022,179.386 181.628,179.386C168.952,179.386 158.64,169.189 158.64,156.655C158.64,151.196 154.214,146.771 148.756,146.771C143.298,146.771 138.872,151.196 138.872,156.655C138.872,169.189 128.79,179.386 116.396,179.386C103.795,179.386 93.151,168.977 93.151,156.655C93.151,151.196 88.725,146.771 83.267,146.771C77.809,146.771 73.383,151.196 73.383,156.655C73.383,169.189 63.186,179.386 50.652,179.386C38.051,179.386 27.406,168.977 27.406,156.655C27.406,132.063 40.594,104.889 62.682,83.966C76.118,71.236 91.61,61.733 108.151,55.824C113.755,72.749 129.718,84.999 148.499,84.999C167.28,84.999 183.243,72.749 188.847,55.824C205.389,61.732 220.879,71.235 234.316,83.966C256.405,104.89 269.592,132.064 269.592,156.655C269.593,169.189 259.396,179.386 246.86,179.386Z" style="fill:rgb(207,129,120);fill-rule:nonzero;"/>
            <g transform="matrix(1.20588,0,0,1.24725,-33.9694,-12.5362)">
                <ellipse cx="151.316" cy="44.118" rx="19.149" ry="18.21" style="fill:rgb(207,129,120);"/>
            </g>
        </g>
        <g id="muffin-svgrepo-com7" serif:id="muffin-svgrepo-com" transform="matrix(0.212042,0,0,0.216144,839.924,46.1267)">
            <path d="M148.5,212.002C143.042,212.002 138.616,216.427 138.616,221.885L138.616,254.501C138.616,259.959 143.042,264.385 148.5,264.385C153.958,264.385 158.384,259.959 158.384,254.501L158.384,221.885C158.384,216.427 153.958,212.002 148.5,212.002Z" style="fill:rgb(207,129,120);fill-rule:nonzero;"/>
            <path d="M104.922,220.55C104.185,215.142 99.212,211.356 93.793,212.093C88.385,212.83 84.599,217.813 85.336,223.221L89.784,255.837C90.459,260.792 94.698,264.386 99.564,264.386C100.008,264.386 100.459,264.356 100.912,264.294C106.32,263.557 110.106,258.574 109.369,253.165L104.922,220.55Z" style="fill:rgb(207,129,120);fill-rule:nonzero;"/>
            <path d="M203.207,212.093C197.793,211.354 192.815,215.143 192.078,220.55L187.631,253.165C186.894,258.574 190.68,263.557 196.088,264.294C196.541,264.356 196.991,264.386 197.436,264.386C202.302,264.386 206.541,260.791 207.216,255.837L211.664,223.221C212.401,217.813 208.615,212.83 203.207,212.093Z" style="fill:rgb(207,129,120);fill-rule:nonzero;"/>
            <path d="M289.359,156.654C289.359,126.292 274.252,94.567 247.911,69.614C231.091,53.678 211.432,42.121 190.411,35.496C187.061,15.383 169.548,0 148.5,0C127.452,0 109.938,15.383 106.589,35.496C85.568,42.121 65.909,53.679 49.089,69.614C22.747,94.567 7.641,126.292 7.641,156.654C7.641,175.586 20.238,191.661 37.583,197.14L45.391,260.85C47.835,280.784 66.161,297 86.241,297L210.759,297C230.839,297 249.165,280.784 251.61,260.851L259.403,197.263C276.733,191.898 289.359,175.725 289.359,156.654ZM148.5,19.767C161.035,19.767 171.232,29.964 171.232,42.499C171.232,55.034 161.035,65.231 148.5,65.231C135.965,65.231 125.768,55.034 125.768,42.499C125.768,29.964 135.965,19.767 148.5,19.767ZM231.989,258.445C230.74,268.629 221.017,277.233 210.759,277.233L86.241,277.233C75.982,277.233 66.26,268.629 65.011,258.445L57.673,198.568C67.925,196.857 76.947,191.466 83.327,183.8C91.224,193.175 103.118,199.153 116.397,199.153C129.407,199.153 141.061,193.207 148.816,183.872C156.665,193.207 168.46,199.153 181.629,199.153C194.639,199.153 206.293,193.207 214.048,183.872C220.367,191.387 229.246,196.698 239.337,198.487L231.989,258.445ZM246.86,179.386C234.184,179.386 223.871,169.189 223.871,156.655C223.871,151.196 219.446,146.771 213.988,146.771C208.53,146.771 204.104,151.196 204.104,156.655C204.104,169.189 194.022,179.386 181.628,179.386C168.952,179.386 158.64,169.189 158.64,156.655C158.64,151.196 154.214,146.771 148.756,146.771C143.298,146.771 138.872,151.196 138.872,156.655C138.872,169.189 128.79,179.386 116.396,179.386C103.795,179.386 93.151,168.977 93.151,156.655C93.151,151.196 88.725,146.771 83.267,146.771C77.809,146.771 73.383,151.196 73.383,156.655C73.383,169.189 63.186,179.386 50.652,179.386C38.051,179.386 27.406,168.977 27.406,156.655C27.406,132.063 40.594,104.889 62.682,83.966C76.118,71.236 91.61,61.733 108.151,55.824C113.755,72.749 129.718,84.999 148.499,84.999C167.28,84.999 183.243,72.749 188.847,55.824C205.389,61.732 220.879,71.235 234.316,83.966C256.405,104.89 269.592,132.064 269.592,156.655C269.593,169.189 259.396,179.386 246.86,179.386Z" style="fill:rgb(207,129,120);fill-rule:nonzero;"/>
            <g transform="matrix(1.20588,0,0,1.24725,-33.9694,-12.5362)">
                <ellipse cx="151.316" cy="44.118" rx="19.149" ry="18.21" style="fill:rgb(207,129,120);"/>
            </g>
        </g>
        <g id="muffin-svgrepo-com8" serif:id="muffin-svgrepo-com" transform="matrix(0.212042,0,0,0.216144,461.167,46.1267)">
            <path d="M148.5,212.002C143.042,212.002 138.616,216.427 138.616,221.885L138.616,254.501C138.616,259.959 143.042,264.385 148.5,264.385C153.958,264.385 158.384,259.959 158.384,254.501L158.384,221.885C158.384,216.427 153.958,212.002 148.5,212.002Z" style="fill:rgb(206,166,74);fill-rule:nonzero;"/>
            <path d="M104.922,220.55C104.185,215.142 99.212,211.356 93.793,212.093C88.385,212.83 84.599,217.813 85.336,223.221L89.784,255.837C90.459,260.792 94.698,264.386 99.564,264.386C100.008,264.386 100.459,264.356 100.912,264.294C106.32,263.557 110.106,258.574 109.369,253.165L104.922,220.55Z" style="fill:rgb(206,166,74);fill-rule:nonzero;"/>
            <path d="M203.207,212.093C197.793,211.354 192.815,215.143 192.078,220.55L187.631,253.165C186.894,258.574 190.68,263.557 196.088,264.294C196.541,264.356 196.991,264.386 197.436,264.386C202.302,264.386 206.541,260.791 207.216,255.837L211.664,223.221C212.401,217.813 208.615,212.83 203.207,212.093Z" style="fill:rgb(206,166,74);fill-rule:nonzero;"/>
            <path d="M289.359,156.654C289.359,126.292 274.252,94.567 247.911,69.614C231.091,53.678 211.432,42.121 190.411,35.496C187.061,15.383 169.548,0 148.5,0C127.452,0 109.938,15.383 106.589,35.496C85.568,42.121 65.909,53.679 49.089,69.614C22.747,94.567 7.641,126.292 7.641,156.654C7.641,175.586 20.238,191.661 37.583,197.14L45.391,260.85C47.835,280.784 66.161,297 86.241,297L210.759,297C230.839,297 249.165,280.784 251.61,260.851L259.403,197.263C276.733,191.898 289.359,175.725 289.359,156.654ZM148.5,19.767C161.035,19.767 171.232,29.964 171.232,42.499C171.232,55.034 161.035,65.231 148.5,65.231C135.965,65.231 125.768,55.034 125.768,42.499C125.768,29.964 135.965,19.767 148.5,19.767ZM231.989,258.445C230.74,268.629 221.017,277.233 210.759,277.233L86.241,277.233C75.982,277.233 66.26,268.629 65.011,258.445L57.673,198.568C67.925,196.857 76.947,191.466 83.327,183.8C91.224,193.175 103.118,199.153 116.397,199.153C129.407,199.153 141.061,193.207 148.816,183.872C156.665,193.207 168.46,199.153 181.629,199.153C194.639,199.153 206.293,193.207 214.048,183.872C220.367,191.387 229.246,196.698 239.337,198.487L231.989,258.445ZM246.86,179.386C234.184,179.386 223.871,169.189 223.871,156.655C223.871,151.196 219.446,146.771 213.988,146.771C208.53,146.771 204.104,151.196 204.104,156.655C204.104,169.189 194.022,179.386 181.628,179.386C168.952,179.386 158.64,169.189 158.64,156.655C158.64,151.196 154.214,146.771 148.756,146.771C143.298,146.771 138.872,151.196 138.872,156.655C138.872,169.189 128.79,179.386 116.396,179.386C103.795,179.386 93.151,168.977 93.151,156.655C93.151,151.196 88.725,146.771 83.267,146.771C77.809,146.771 73.383,151.196 73.383,156.655C73.383,169.189 63.186,179.386 50.652,179.386C38.051,179.386 27.406,168.977 27.406,156.655C27.406,132.063 40.594,104.889 62.682,83.966C76.118,71.236 91.61,61.733 108.151,55.824C113.755,72.749 129.718,84.999 148.499,84.999C167.28,84.999 183.243,72.749 188.847,55.824C205.389,61.732 220.879,71.235 234.316,83.966C256.405,104.89 269.592,132.064 269.592,156.655C269.593,169.189 259.396,179.386 246.86,179.386Z" style="fill:rgb(206,166,74);fill-rule:nonzero;"/>
            <g transform="matrix(1.20588,0,0,1.24725,-33.9694,-12.5362)">
                <ellipse cx="151.316" cy="44.118" rx="19.149" ry="18.21" style="fill:rgb(206,166,74);"/>
            </g>
        </g>
        <g id="muffin-svgrepo-com9" serif:id="muffin-svgrepo-com" transform="matrix(0.212042,0,0,0.216144,934.613,46.4672)">
            <path d="M148.5,212.002C143.042,212.002 138.616,216.427 138.616,221.885L138.616,254.501C138.616,259.959 143.042,264.385 148.5,264.385C153.958,264.385 158.384,259.959 158.384,254.501L158.384,221.885C158.384,216.427 153.958,212.002 148.5,212.002Z" style="fill:rgb(206,166,74);fill-rule:nonzero;"/>
            <path d="M104.922,220.55C104.185,215.142 99.212,211.356 93.793,212.093C88.385,212.83 84.599,217.813 85.336,223.221L89.784,255.837C90.459,260.792 94.698,264.386 99.564,264.386C100.008,264.386 100.459,264.356 100.912,264.294C106.32,263.557 110.106,258.574 109.369,253.165L104.922,220.55Z" style="fill:rgb(206,166,74);fill-rule:nonzero;"/>
            <path d="M203.207,212.093C197.793,211.354 192.815,215.143 192.078,220.55L187.631,253.165C186.894,258.574 190.68,263.557 196.088,264.294C196.541,264.356 196.991,264.386 197.436,264.386C202.302,264.386 206.541,260.791 207.216,255.837L211.664,223.221C212.401,217.813 208.615,212.83 203.207,212.093Z" style="fill:rgb(206,166,74);fill-rule:nonzero;"/>
            <path d="M289.359,156.654C289.359,126.292 274.252,94.567 247.911,69.614C231.091,53.678 211.432,42.121 190.411,35.496C187.061,15.383 169.548,0 148.5,0C127.452,0 109.938,15.383 106.589,35.496C85.568,42.121 65.909,53.679 49.089,69.614C22.747,94.567 7.641,126.292 7.641,156.654C7.641,175.586 20.238,191.661 37.583,197.14L45.391,260.85C47.835,280.784 66.161,297 86.241,297L210.759,297C230.839,297 249.165,280.784 251.61,260.851L259.403,197.263C276.733,191.898 289.359,175.725 289.359,156.654ZM148.5,19.767C161.035,19.767 171.232,29.964 171.232,42.499C171.232,55.034 161.035,65.231 148.5,65.231C135.965,65.231 125.768,55.034 125.768,42.499C125.768,29.964 135.965,19.767 148.5,19.767ZM231.989,258.445C230.74,268.629 221.017,277.233 210.759,277.233L86.241,277.233C75.982,277.233 66.26,268.629 65.011,258.445L57.673,198.568C67.925,196.857 76.947,191.466 83.327,183.8C91.224,193.175 103.118,199.153 116.397,199.153C129.407,199.153 141.061,193.207 148.816,183.872C156.665,193.207 168.46,199.153 181.629,199.153C194.639,199.153 206.293,193.207 214.048,183.872C220.367,191.387 229.246,196.698 239.337,198.487L231.989,258.445ZM246.86,179.386C234.184,179.386 223.871,169.189 223.871,156.655C223.871,151.196 219.446,146.771 213.988,146.771C208.53,146.771 204.104,151.196 204.104,156.655C204.104,169.189 194.022,179.386 181.628,179.386C168.952,179.386 158.64,169.189 158.64,156.655C158.64,151.196 154.214,146.771 148.756,146.771C143.298,146.771 138.872,151.196 138.872,156.655C138.872,169.189 128.79,179.386 116.396,179.386C103.795,179.386 93.151,168.977 93.151,156.655C93.151,151.196 88.725,146.771 83.267,146.771C77.809,146.771 73.383,151.196 73.383,156.655C73.383,169.189 63.186,179.386 50.652,179.386C38.051,179.386 27.406,168.977 27.406,156.655C27.406,132.063 40.594,104.889 62.682,83.966C76.118,71.236 91.61,61.733 108.151,55.824C113.755,72.749 129.718,84.999 148.499,84.999C167.28,84.999 183.243,72.749 188.847,55.824C205.389,61.732 220.879,71.235 234.316,83.966C256.405,104.89 269.592,132.064 269.592,156.655C269.593,169.189 259.396,179.386 246.86,179.386Z" style="fill:rgb(206,166,74);fill-rule:nonzero;"/>
            <g transform="matrix(1.20588,0,0,1.24725,-33.9694,-12.5362)">
                <ellipse cx="151.316" cy="44.118" rx="19.149" ry="18.21" style="fill:rgb(206,166,74);"/>
            </g>
        </g>
    </g>
</svg>
